<?xml version="1.0" encoding="UTF-8"?>
<svg version="1.1" xmlns="http://www.w3.org/2000/svg" width="250" height="250">
<path d="M0 0 C0.92039063 0.54527344 1.84078125 1.09054688 2.7890625 1.65234375 C21.50985338 13.80600005 33.48813136 32.7721675 38.44140625 54.3203125 C39.7570141 60.63155016 40.13101759 66.58013803 40 73 C40.60328125 73.28617187 41.2065625 73.57234375 41.828125 73.8671875 C44.50868694 75.26532232 46.68292061 77.06910051 49 79 C48.7578125 80.83984375 48.7578125 80.83984375 48 83 C46.1796875 84.25390625 46.1796875 84.25390625 43.875 85.5625 C38.10080737 89.78596159 36.76362758 95.14814682 34.59082031 101.6640625 C30.53761429 113.6797523 23.81049465 122.91568742 15 132 C14.44957031 132.62390625 13.89914063 133.2478125 13.33203125 133.890625 C0.38162643 148.08810584 -20.84707575 155.14999778 -39.62109375 156.203125 C-63.94329404 156.50186236 -85.32046188 149.1701277 -103 132 C-103.69867188 131.37480469 -104.39734375 130.74960938 -105.1171875 130.10546875 C-114.91159034 121.05422099 -122.29250825 107.82013416 -125.1875 94.8125 C-126.67823795 89.23997957 -130.29928056 86.85643006 -134.91796875 83.69140625 C-135.60503906 83.13324219 -136.29210937 82.57507813 -137 82 C-137 81.01 -137 80.02 -137 79 C-135.73679362 78.24207617 -134.43791028 77.54313583 -133.125 76.875 C-129.80557132 74.53392925 -129.07996912 73.35201359 -128.1640625 69.3203125 C-127.83114772 66.36689259 -127.62494514 63.40467031 -127.3984375 60.44140625 C-125.98354701 42.21589695 -115.61893 22.50469153 -102.125 10.25 C-100.76437374 9.14866794 -99.38842814 8.06606914 -98 7 C-96.80310547 6.03320312 -96.80310547 6.03320312 -95.58203125 5.046875 C-67.99610906 -16.30471027 -29.72613484 -17.80263254 0 0 Z M-103.125 16.75 C-118.28151163 32.35788109 -123.22978667 49.75744005 -125 71 C-115.76 71 -106.52 71 -97 71 C-96.649375 68.64875 -96.29875 66.2975 -95.9375 63.875 C-93.40199099 49.44141863 -86.25212786 37.41197878 -74.75 28.1875 C-62.10002419 19.84326713 -46.33522894 18.19907578 -31.65625 20.53125 C-16.79565698 24.37162797 -5.35353917 33.33925636 2.50390625 46.5234375 C6.44457647 54.35772517 7.60541712 62.41230544 9 71 C17.91 71 26.82 71 36 71 C36 50.74180462 29.80427162 33.04480846 16 18 C15.33613281 17.24460937 14.67226562 16.48921875 13.98828125 15.7109375 C2.61877162 3.47978297 -14.33707295 -6.02049438 -31 -8 C-32.03253906 -8.13277344 -33.06507813 -8.26554687 -34.12890625 -8.40234375 C-60.94737477 -11.11775182 -83.76892656 -1.66331188 -103.125 16.75 Z M-77 35 C-77.60585937 35.47695312 -78.21171875 35.95390625 -78.8359375 36.4453125 C-85.67148189 42.35295494 -91.25841817 53.17898754 -93 62 C-93.07818636 63.51395696 -93.10789909 65.03093507 -93.09765625 66.546875 C-93.09443359 67.39121094 -93.09121094 68.23554687 -93.08789062 69.10546875 C-93.07951172 69.97816406 -93.07113281 70.85085937 -93.0625 71.75 C-93.05798828 72.63816406 -93.05347656 73.52632812 -93.04882812 74.44140625 C-93.037074 76.62767329 -93.02064249 78.81380179 -93 81 C-92.34 81 -91.68 81 -91 81 C-90.67 74.07 -90.34 67.14 -90 60 C-88.68 59.34 -87.36 58.68 -86 58 C-82.70834897 59.92700299 -80.24470672 61.89632517 -78 65 C-77.00129567 70.04009337 -76.89448521 74.87593822 -77 80 C-76.67 80 -76.34 80 -76 80 C-76.0220752 79.01717041 -76.04415039 78.03434082 -76.06689453 77.02172852 C-76.13620417 73.33655736 -76.13866748 69.65371961 -76.12207031 65.96801758 C-76.12400396 64.38032948 -76.14350105 62.79255338 -76.18164062 61.20532227 C-76.47738656 48.14731761 -76.47738656 48.14731761 -72.83886719 42.85888672 C-70.30347077 40.45710374 -68.13226795 38.54685477 -65 37 C-61.84219093 37.25317494 -59.92198631 38.53900684 -57 40 C-57 53.86 -57 67.72 -57 82 C-56.01 82 -55.02 82 -54 82 C-53.98541748 80.70376709 -53.97083496 79.40753418 -53.95581055 78.07202148 C-53.89764901 73.24297092 -53.82041709 68.41437793 -53.73754883 63.58569336 C-53.70438339 61.49950613 -53.67632557 59.41323098 -53.65356445 57.3269043 C-53.61986431 54.32042121 -53.56754032 51.31473775 -53.51171875 48.30859375 C-53.50532883 47.38227646 -53.4989389 46.45595917 -53.49235535 45.50157166 C-53.36780842 39.96210086 -52.7563163 35.85861211 -50 31 C-46.40735548 29.80245183 -43.77282526 29.66905042 -40 30 C-37.6875 31.4375 -37.6875 31.4375 -36 34 C-35.66879983 35.49176938 -35.38064323 36.99344234 -35.125 38.5 C-34.54476691 41.84172946 -34.54476691 41.84172946 -32.546875 44.47265625 C-30.7237142 45.70630044 -30.7237142 45.70630044 -28 47 C-28.60897353 50.55234558 -29.45733849 53.7331874 -31 57 C-33.40545638 58.20272819 -34.94996953 58.10071472 -37.625 58.0625 C-38.85089844 58.04896484 -38.85089844 58.04896484 -40.1015625 58.03515625 C-40.72804687 58.02355469 -41.35453125 58.01195312 -42 58 C-42.16788373 56.37512529 -42.33426787 54.75009558 -42.5 53.125 C-42.5928125 52.22007813 -42.685625 51.31515625 -42.78125 50.3828125 C-43 48 -43 48 -43 46 C-42.175 45.608125 -41.35 45.21625 -40.5 44.8125 C-37.61310185 43.16713973 -37.61310185 43.16713973 -37.4375 39.5625 C-37.74991036 36.01312199 -37.74991036 36.01312199 -39.625 33.5 C-41.97236953 31.71246148 -41.97236953 31.71246148 -45.125 32.0625 C-48.29174932 32.76694687 -48.29174932 32.76694687 -50 36 C-50.28905027 38.20104779 -50.28905027 38.20104779 -50.22705078 40.6550293 C-50.22682419 42.06615242 -50.22682419 42.06615242 -50.22659302 43.50578308 C-50.21627045 44.51836685 -50.20594788 45.53095062 -50.1953125 46.57421875 C-50.19106766 48.13267265 -50.19106766 48.13267265 -50.18673706 49.72261047 C-50.17553282 53.04435697 -50.15042764 56.36583485 -50.125 59.6875 C-50.11497052 61.93814715 -50.10584462 64.18879852 -50.09765625 66.43945312 C-50.0755927 71.95972722 -50.04211271 77.47984442 -50 83 C-48.68 83.33 -47.36 83.66 -46 84 C-42.37 79.05 -38.74 74.1 -35 69 C-28.10552764 69.86180904 -21.61450673 71.04555732 -14.875 72.625 C-13.81667969 72.84800781 -12.75835937 73.07101563 -11.66796875 73.30078125 C-5.43131702 74.7797363 -1.7862117 76.221605 1.90966797 81.58740234 C2.26947754 82.05355957 2.62928711 82.5197168 3 83 C3.66 83 4.32 83 5 83 C6.98876538 67.23364314 4.34891001 53.99457738 -4.75 40.8125 C-13.00705479 30.36479803 -25.53695954 24.11381717 -38.5625 22.25 C-53.34088203 21.01284473 -65.99138016 25.39322688 -77 35 Z M-35 74 C-35.66 75.32 -36.32 76.64 -37 78 C-35.02 78 -33.04 78 -31 78 C-32.32 76.68 -33.64 75.36 -35 74 Z M-38 78 C-39.32 80.31 -40.64 82.62 -42 85 C-36.19166432 89.03356644 -30.76605015 87.908709 -24 87 C-24.97528737 85.66382648 -25.95533319 84.3311249 -26.9375 83 C-27.48277344 82.2575 -28.02804688 81.515 -28.58984375 80.75 C-29.05519531 80.1725 -29.52054688 79.595 -30 79 C-30.33 79 -30.66 79 -31 79 C-31 81.31 -31 83.62 -31 86 C-33.97 85.505 -33.97 85.505 -37 85 C-37 82.69 -37 80.38 -37 78 C-37.33 78 -37.66 78 -38 78 Z M-81 83 C-81 83.33 -81 83.66 -81 84 C-79.02 84 -77.04 84 -75 84 C-75 83.67 -75 83.34 -75 83 C-76.98 83 -78.96 83 -81 83 Z M-89 84 C-85 85 -85 85 -85 85 Z M-65 84 C-65 84.33 -65 84.66 -65 85 C-63.35 85 -61.7 85 -60 85 C-60 84.67 -60 84.34 -60 84 C-61.65 84 -63.3 84 -65 84 Z M-122 90 C-119.53897657 109.68818741 -106.2928029 125.9842263 -91 138 C-80.59605037 145.32522984 -68.66310449 150.54383515 -56 152 C-54.65615234 152.19916016 -54.65615234 152.19916016 -53.28515625 152.40234375 C-32.44029599 154.94718952 -11.29524652 148.9622701 5.25 136.125 C6.85055597 134.77008671 8.43439153 133.39514858 10 132 C10.75925781 131.33484375 11.51851562 130.6696875 12.30078125 129.984375 C23.57180809 119.4725365 31.81845454 105.27081825 34 90 C24.76 90 15.52 90 6 90 C4.35 93.3 2.7 96.6 1 100 C-6.72367913 111.99339838 -17.83542326 120.33370767 -31.8359375 123.59594727 C-35.70656465 124.31863318 -39.57294681 124.59503076 -43.5 124.8125 C-44.30308594 124.87630859 -45.10617188 124.94011719 -45.93359375 125.00585938 C-51.65928488 125.33529541 -55.82681539 124.42289235 -61 122 C-61.61214355 121.722771 -62.22428711 121.44554199 -62.85498047 121.15991211 C-64.64761298 120.32587692 -66.41790102 119.44435343 -68.1875 118.5625 C-69.35667969 117.98628906 -70.52585938 117.41007812 -71.73046875 116.81640625 C-74.78957383 115.11690343 -77.2884725 113.19137658 -80 111 C-80.66 111 -81.32 111 -82 111 C-82.25910156 110.45085937 -82.51820312 109.90171875 -82.78515625 109.3359375 C-84.6857774 105.68136693 -86.99766501 102.29947698 -89.24609375 98.8515625 C-91.00070773 95.99884934 -92.50222548 92.99554904 -94 90 C-103.24 90 -112.48 90 -122 90 Z M-30 90 C-30 90.33 -30 90.66 -30 91 C-27.36 91 -24.72 91 -22 91 C-22 90.67 -22 90.34 -22 90 C-24.64 90 -27.28 90 -30 90 Z M-11 90 C-11 90.33 -11 90.66 -11 91 C-8.69 91 -6.38 91 -4 91 C-4 90.67 -4 90.34 -4 90 C-6.31 90 -8.62 90 -11 90 Z M-35 91 C-31 92 -31 92 -31 92 Z M-16 98 C-12 99 -12 99 -12 99 Z M-52 110 C-52.33 110.66 -52.66 111.32 -53 112 C-52.01 111.67 -51.02 111.34 -50 111 C-50.66 110.67 -51.32 110.34 -52 110 Z " fill="#26371F" transform="translate(169,53)"/>
<path d="M0 0 C2.63016161 2.1727422 4.47336894 3.94673788 6 7 C6.04022391 9.3329866 6.04320247 11.66706666 6 14 C6.78375 14.268125 7.5675 14.53625 8.375 14.8125 C11 16 11 16 13 19 C12.34 19 11.68 19 11 19 C11.226875 19.53625 11.45375 20.0725 11.6875 20.625 C12.14543005 24.10526835 10.76742431 26.05429282 9 29 C6.47946405 30.26026798 5.1457902 29.91874445 2.375 29.5625 C1.55773437 29.46066406 0.74046875 29.35882813 -0.1015625 29.25390625 C-0.72804687 29.17011719 -1.35453125 29.08632812 -2 29 C-2.36279456 27.71073008 -2.71496698 26.41846728 -3.0625 25.125 C-3.25972656 24.40570313 -3.45695312 23.68640625 -3.66015625 22.9453125 C-4 21 -4 21 -3 19 C-3.66 18.67 -4.32 18.34 -5 18 C-0.25 14 -0.25 14 2 14 C1.34 11.03 0.68 8.06 0 5 C-2.76264289 4.40267181 -5.16032769 4 -8 4 C-8.95987611 6.87962834 -9.12153814 8.66627441 -9.11352539 11.6550293 C-9.11344986 12.59577805 -9.11337433 13.53652679 -9.11329651 14.50578308 C-9.10813522 15.51836685 -9.10297394 16.53095062 -9.09765625 17.57421875 C-9.09553383 19.13267265 -9.09553383 19.13267265 -9.09336853 20.72261047 C-9.08776656 24.04426948 -9.07521372 27.36586133 -9.0625 30.6875 C-9.05748525 32.93815007 -9.0529223 35.18880119 -9.04882812 37.43945312 C-9.03779649 42.95965837 -9.02105643 48.47982439 -9 54 C-8.01 54 -7.02 54 -6 54 C-4.56312622 52.60765083 -4.56312622 52.60765083 -3.30078125 50.71875 C-2.81416016 50.04199219 -2.32753906 49.36523438 -1.82617188 48.66796875 C-1.0769043 47.59482422 -1.0769043 47.59482422 -0.3125 46.5 C0.19861328 45.78457031 0.70972656 45.06914063 1.23632812 44.33203125 C2.49983511 42.56075977 3.75378948 40.78346291 5 39 C11.80755845 39.71270468 18.3959137 41.02216121 25.0625 42.5625 C26.11244141 42.77712891 27.16238281 42.99175781 28.24414062 43.21289062 C34.84056969 44.76132866 38.59647206 46.71562863 42.88232422 52.01074219 C44 54 44 54 44.0625 57.6875 C43.1526927 60.52395806 42.12224911 63.24368106 41 66 C40.01157104 66.06731323 40.01157104 66.06731323 39.00317383 66.13598633 C18.98807578 67.53929758 3.22568773 70.18643229 -14.4375 80.0625 C-15.02909912 80.39080811 -15.62069824 80.71911621 -16.23022461 81.05737305 C-19.63905661 83.01414131 -22.36005068 85.08762347 -25 88 C-29.10839064 86.54997977 -32.50344613 84.6020866 -36 82 C-36 81.34 -36 80.68 -36 80 C-36.85078125 79.95166016 -36.85078125 79.95166016 -37.71875 79.90234375 C-41.21317999 78.52012915 -42.6118763 75.64578076 -44.5 72.5625 C-44.89437256 71.93303467 -45.28874512 71.30356934 -45.69506836 70.6550293 C-53 58.72480359 -53 58.72480359 -53 52 C-52.34 52 -51.68 52 -51 52 C-51.02618408 51.37955811 -51.05236816 50.75911621 -51.0793457 50.11987305 C-51.18326415 47.30933952 -51.24830572 44.49920943 -51.3125 41.6875 C-51.35439453 40.71103516 -51.39628906 39.73457031 -51.43945312 38.72851562 C-51.46362305 37.32182617 -51.46362305 37.32182617 -51.48828125 35.88671875 C-51.51446533 35.02264404 -51.54064941 34.15856934 -51.56762695 33.26831055 C-51 31 -51 31 -46 28 C-43.03 30.64 -40.06 33.28 -37 36 C-37.05542969 34.74445313 -37.11085938 33.48890625 -37.16796875 32.1953125 C-37.3744406 18.12151682 -37.3744406 18.12151682 -33.625 13.4765625 C-31.01092378 10.85581204 -28.30492828 8.70154723 -25 7 C-22.89453125 7.078125 -22.89453125 7.078125 -21 8 C-20.30898193 8.318479 -19.61796387 8.63695801 -18.90600586 8.96508789 C-15.77678791 12.30593989 -16.50877358 16.07920566 -16.609375 20.48046875 C-16.61503479 21.40845779 -16.62069458 22.33644684 -16.62652588 23.29255676 C-16.64892624 26.25806146 -16.69912927 29.2223602 -16.75 32.1875 C-16.77006027 34.19724818 -16.78831187 36.20701529 -16.8046875 38.21679688 C-16.84880304 43.14499629 -16.91785576 48.07229365 -17 53 C-16.01 53 -15.02 53 -14 53 C-14.01571045 51.70376709 -14.0314209 50.40753418 -14.04760742 49.07202148 C-14.10208224 44.24330914 -14.13641393 39.41462376 -14.16479492 34.58569336 C-14.17984159 32.4993838 -14.20028382 30.41310567 -14.22631836 28.3269043 C-14.26288295 25.32072169 -14.2797679 22.31495888 -14.29296875 19.30859375 C-14.30845261 18.38227646 -14.32393646 17.45595917 -14.33988953 16.50157166 C-14.34133463 10.88688091 -13.68199477 6.96520897 -11 2 C-7.7248919 -0.69026737 -4.08497813 -0.50166398 0 0 Z M5 45 C4.34 46.32 3.68 47.64 3 49 C4.98 49 6.96 49 9 49 C7.68 47.68 6.36 46.36 5 45 Z M2 49 C0.68 51.31 -0.64 53.62 -2 56 C3.80833568 60.03356644 9.23394985 58.908709 16 58 C15.02471263 56.66382648 14.04466681 55.3311249 13.0625 54 C12.51722656 53.2575 11.97195312 52.515 11.41015625 51.75 C10.94480469 51.1725 10.47945312 50.595 10 50 C9.67 50 9.34 50 9 50 C9 52.31 9 54.62 9 57 C6.03 56.505 6.03 56.505 3 56 C3 53.69 3 51.38 3 49 C2.67 49 2.34 49 2 49 Z M-41 54 C-41 54.33 -41 54.66 -41 55 C-39.02 55 -37.04 55 -35 55 C-35 54.67 -35 54.34 -35 54 C-36.98 54 -38.96 54 -41 54 Z M-49 55 C-45 56 -45 56 -45 56 Z M-25 55 C-25 55.33 -25 55.66 -25 56 C-23.35 56 -21.7 56 -20 56 C-20 55.67 -20 55.34 -20 55 C-21.65 55 -23.3 55 -25 55 Z M10 61 C10 61.33 10 61.66 10 62 C12.64 62 15.28 62 18 62 C18 61.67 18 61.34 18 61 C15.36 61 12.72 61 10 61 Z M29 61 C29 61.33 29 61.66 29 62 C31.31 62 33.62 62 36 62 C36 61.67 36 61.34 36 61 C33.69 61 31.38 61 29 61 Z M5 62 C9 63 9 63 9 63 Z " fill="#324659" transform="translate(129,82)"/>
<path d="M0 0 C-4.79384894 10.42141073 -14.36992584 16.89433657 -24.69140625 21.1875 C-36.37197555 25.29842794 -47.33481018 24.79062261 -59 21 C-44.68823293 5.73587875 -20.34408642 -0.68963005 0 0 Z " fill="#F89B1F" transform="translate(167,151)"/>
<path d="M0 0 C0.62479248 0.30599121 1.24958496 0.61198242 1.89331055 0.92724609 C2.99497559 1.40738159 2.99497559 1.40738159 4.11889648 1.8972168 C7.07007016 5.27352515 6.38274786 9.08472434 6.28393555 13.40771484 C6.27827576 14.33570389 6.27261597 15.26369293 6.26678467 16.21980286 C6.24438431 19.18530755 6.19418128 22.1496063 6.14331055 25.11474609 C6.12325027 27.12449428 6.10499868 29.13426139 6.08862305 31.14404297 C6.0445075 36.07224238 5.97545478 40.99953975 5.89331055 45.92724609 C3.28878784 45.78638008 0.68480858 45.63976146 -1.91918945 45.48974609 C-2.65717773 45.45042969 -3.39516602 45.41111328 -4.15551758 45.37060547 C-7.33740287 45.18343575 -10.06831324 44.94003817 -13.10668945 43.92724609 C-13.38119575 39.26870154 -13.57931298 34.61496817 -13.7109375 29.95019531 C-13.7658462 28.36863151 -13.84061516 26.78761556 -13.93652344 25.20800781 C-14.74834442 11.48085297 -14.74834442 11.48085297 -10.74975586 6.55908203 C-4.1779742 -0.14428512 -4.1779742 -0.14428512 0 0 Z " fill="#01AACE" transform="translate(106.106689453125,89.07275390625)"/>
<path d="M0 0 C-2.97571196 1.61560119 -6.03640748 2.74198341 -9.22973633 3.85302734 C-16.91975383 6.55359421 -23.87049069 9.90684572 -30.85839844 14.10375977 C-35.72045474 17 -35.72045474 17 -39 17 C-44.19071057 11.13685647 -49 3.98018237 -49 -4 C-33.26646806 -7.192681 -14.93238497 -5.66400809 0 0 Z " fill="#FDC906" transform="translate(127,142)"/>
<path d="M0 0 C6.80755845 0.71270468 13.3959137 2.02216121 20.0625 3.5625 C21.63741211 3.88444336 21.63741211 3.88444336 23.24414062 4.21289062 C29.78050249 5.74722856 33.58149849 7.6895398 37.88842773 12.88256836 C39.22065697 15.420329 39.21683994 17.17308391 39 20 C34.45694976 20.03540156 29.91777152 19.99344546 25.375 19.9375 C23.44720703 19.95393555 23.44720703 19.95393555 21.48046875 19.97070312 C12.10537962 19.80068856 12.10537962 19.80068856 8.76269531 17.37939453 C7.28044051 15.65009726 6.07843599 14.00192429 5 12 C4.67 13.98 4.34 15.96 4 18 C2.02 17.67 0.04 17.34 -2 17 C-2.33 15.35 -2.66 13.7 -3 12 C-3.86625 13.2375 -3.86625 13.2375 -4.75 14.5 C-5.4925 15.325 -6.235 16.15 -7 17 C-8.32 17 -9.64 17 -11 17 C-9.52869627 12.6426774 -7.16919385 9.28065866 -4.375 5.6875 C-3.95476562 5.13771484 -3.53453125 4.58792969 -3.1015625 4.02148438 C-2.07279961 2.67707832 -1.0370991 1.33798587 0 0 Z M0 6 C-0.66 7.32 -1.32 8.64 -2 10 C-0.02 10 1.96 10 4 10 C2.68 8.68 1.36 7.36 0 6 Z " fill="#00A9CD" transform="translate(134,121)"/>
<path d="M0 0 C1.08539063 0.05414063 2.17078125 0.10828125 3.2890625 0.1640625 C9.4994333 0.55675574 9.4994333 0.55675574 12 1 C12.495 1.99 12.495 1.99 13 3 C12.67 3.66 12.34 4.32 12 5 C9.88964844 5.36303711 9.88964844 5.36303711 7.109375 5.52734375 C6.09576904 5.59542236 5.08216309 5.66350098 4.0378418 5.73364258 C2.41036011 5.834552 2.41036011 5.834552 0.75 5.9375 C-15.91179187 7.16459283 -28.82868519 10.89423239 -43.4375 19.0625 C-44.02909912 19.39080811 -44.62069824 19.71911621 -45.23022461 20.05737305 C-48.63905661 22.01414131 -51.36005068 24.08762347 -54 27 C-58.10958767 25.54955729 -61.43258745 23.48889248 -65 21 C-63.11292287 15.33876861 -55.41202628 12.7339013 -50.27148438 10.10595703 C-34.88425308 2.6141086 -17.11670881 -1.10600272 0 0 Z " fill="#6BBB45" transform="translate(158,143)"/>
<path d="M0 0 C2.63016161 2.1727422 4.47336894 3.94673788 6 7 C6.04022391 9.3329866 6.04320247 11.66706666 6 14 C6.78375 14.268125 7.5675 14.53625 8.375 14.8125 C11 16 11 16 13 19 C12.34 19 11.68 19 11 19 C11.226875 19.53625 11.45375 20.0725 11.6875 20.625 C12.14543005 24.10526835 10.76742431 26.05429282 9 29 C6.47946405 30.26026798 5.1457902 29.91874445 2.375 29.5625 C1.55773437 29.46066406 0.74046875 29.35882813 -0.1015625 29.25390625 C-0.72804687 29.17011719 -1.35453125 29.08632812 -2 29 C-2.36279456 27.71073008 -2.71496698 26.41846728 -3.0625 25.125 C-3.25972656 24.40570313 -3.45695312 23.68640625 -3.66015625 22.9453125 C-4 21 -4 21 -3 19 C-3.66 18.67 -4.32 18.34 -5 18 C-0.25 14 -0.25 14 2 14 C1.34 11.03 0.68 8.06 0 5 C-2.76264289 4.40267181 -5.16032769 4 -8 4 C-8.9465414 6.83962421 -9.14994224 8.70406529 -9.20532227 11.6550293 C-9.22526749 12.59577805 -9.24521271 13.53652679 -9.26576233 14.50578308 C-9.28247482 15.51836685 -9.29918732 16.53095062 -9.31640625 17.57421875 C-9.33718735 18.61318802 -9.35796844 19.65215729 -9.37937927 20.72261047 C-9.44480656 24.04417253 -9.50372821 27.36581416 -9.5625 30.6875 C-9.60569169 32.9381593 -9.64930619 35.18881052 -9.69335938 37.43945312 C-9.80048098 42.9595511 -9.90226016 48.47972837 -10 54 C-11.32 53.67 -12.64 53.34 -14 53 C-14.07439398 46.86192448 -14.12871769 40.72411392 -14.16479492 34.58569336 C-14.17984159 32.4993838 -14.20028382 30.41310567 -14.22631836 28.3269043 C-14.26288295 25.32072169 -14.2797679 22.31495888 -14.29296875 19.30859375 C-14.30845261 18.38227646 -14.32393646 17.45595917 -14.33988953 16.50157166 C-14.34133463 10.88688091 -13.68199477 6.96520897 -11 2 C-7.7248919 -0.69026737 -4.08497813 -0.50166398 0 0 Z " fill="#00ABCF" transform="translate(129,82)"/>
<path d="M0 0 C-0.875 6.75 -0.875 6.75 -2 9 C-0.68 9.66 0.64 10.32 2 11 C1.67 11.99 1.34 12.98 1 14 C-2.93370357 13.43804235 -5.83175607 12.44407389 -9 10 C-9 8.68 -9 7.36 -9 6 C-7.68 6 -6.36 6 -5 6 C-5 5.34 -5 4.68 -5 4 C-7.31 4.33 -9.62 4.66 -12 5 C-9.525 10.445 -9.525 10.445 -7 16 C-8.65 16.33 -10.3 16.66 -12 17 C-13.32 14.36 -14.64 11.72 -16 9 C-15.67 10.32 -15.34 11.64 -15 13 C-15.4375 15.25 -15.4375 15.25 -16 17 C-17.65 16.67 -19.3 16.34 -21 16 C-21.33 15.01 -21.66 14.02 -22 13 C-21.67 12.34 -21.34 11.68 -21 11 C-21.99 11.33 -22.98 11.66 -24 12 C-22.95728026 14.2458579 -21.91350633 16.10978043 -20.375 18.0625 C-19 20 -19 20 -19 23 C-19.99 23.33 -20.98 23.66 -22 24 C-24.1875 22.5625 -24.1875 22.5625 -26 21 C-26.66 22.32 -27.32 23.64 -28 25 C-29.65 24.67 -31.3 24.34 -33 24 C-32.38722388 21.03824877 -31.74627478 19.61941217 -30 17 C-31.98 18.32 -33.96 19.64 -36 21 C-36.66 20.01 -37.32 19.02 -38 18 C-30.03625202 9.88517821 -12.26134543 -3.95795123 0 0 Z " fill="#21341A" transform="translate(111,55)"/>
<path d="M0 0 C7.50835322 4.77804296 7.50835322 4.77804296 10 8 C10.2911521 10.73682971 10.38322418 13.03940039 10.25 15.75 C10.23195313 16.44738281 10.21390625 17.14476563 10.1953125 17.86328125 C10.14838554 19.57611539 10.07664605 21.28823824 10 23 C6.84493858 23.93619813 4.03413498 24.1057123 0.75 24.0625 C-0.14203125 24.05347656 -1.0340625 24.04445312 -1.953125 24.03515625 C-2.62859375 24.02355469 -3.3040625 24.01195312 -4 24 C-4.11604679 20.5627834 -4.18719508 17.12606914 -4.25 13.6875 C-4.28351563 12.71103516 -4.31703125 11.73457031 -4.3515625 10.72851562 C-4.36445312 9.79072266 -4.37734375 8.85292969 -4.390625 7.88671875 C-4.41157227 7.02264404 -4.43251953 6.15856934 -4.45410156 5.26831055 C-4 3 -4 3 -1.97558594 1.19458008 C-0.9976709 0.60326294 -0.9976709 0.60326294 0 0 Z " fill="#00AACE" transform="translate(82,110)"/>
<path d="M0 0 C1.32 0.66 2.64 1.32 4 2 C2.7874262 5.72433382 1.49140021 9.37802806 0 13 C1.98 13.99 3.96 14.98 6 16 C8.31 13.03 10.62 10.06 13 7 C17.00096579 9.00048289 19.23360418 10.52224526 22 14 C21.9263784 17.75470151 21.67158839 19.32841161 19 22 C15.46681687 22.23042499 12.38598829 22.04184255 9 21 C8.67 21.66 8.34 22.32 8 23 C2.90936134 20.50316294 -2.02781278 17.72286443 -7 15 C-3.535 7.575 -3.535 7.575 0 0 Z M14 14 C14 15.32 14 16.64 14 18 C14.99 17.67 15.98 17.34 17 17 C16.67 16.01 16.34 15.02 16 14 C15.34 14 14.68 14 14 14 Z " fill="#22341A" transform="translate(153,56)"/>
<path d="M0 0 C-0.33 0.99 -0.66 1.98 -1 3 C-1.589021 3.05534912 -2.17804199 3.11069824 -2.78491211 3.16772461 C-5.50251515 3.42353973 -8.22000746 3.68051378 -10.9375 3.9375 C-11.86369141 4.02451172 -12.78988281 4.11152344 -13.74414062 4.20117188 C-15.59393473 4.37641553 -17.44339067 4.55526759 -19.29248047 4.73779297 C-21.08197535 4.91109482 -22.87273886 5.07180864 -24.66455078 5.21923828 C-26.78374876 5.41028942 -28.89402008 5.69610986 -31 6 C-31.33 6.66 -31.66 7.32 -32 8 C-32.66 7.67 -33.32 7.34 -34 7 C-34.33 7.66 -34.66 8.32 -35 9 C-36.6796875 9.640625 -36.6796875 9.640625 -38.875 10.25 C-47.26963899 12.90093863 -54.41247165 17.2359127 -61 23 C-61.99 23.33 -62.98 23.66 -64 24 C-64 20 -64 20 -62.6015625 18.5078125 C-60.41604108 16.97881135 -58.22895544 15.46536549 -56 14 C-55.24074219 13.49082031 -54.48148438 12.98164063 -53.69921875 12.45703125 C-37.30900156 2.02201572 -19.08643304 -0.76007919 0 0 Z " fill="#334959" transform="translate(169,148)"/>
<path d="M0 0 C1.32 0 2.64 0 4 0 C4 1.98 4 3.96 4 6 C5.65 6.33 7.3 6.66 9 7 C9 5.02 9 3.04 9 1 C10.65 1 12.3 1 14 1 C14 6.28 14 11.56 14 17 C12.35 17 10.7 17 9 17 C9 15.02 9 13.04 9 11 C7.35 11 5.7 11 4 11 C4 12.98 4 14.96 4 17 C2.68 17 1.36 17 0 17 C0 11.39 0 5.78 0 0 Z " fill="#23351B" transform="translate(119,50)"/>
<path d="M0 0 C8 1 8 1 11 2 C11 3.32 11 4.64 11 6 C8.69 6 6.38 6 4 6 C6.475 6.99 6.475 6.99 9 8 C8.67 9.32 8.34 10.64 8 12 C5.03 11.505 5.03 11.505 2 11 C2 11.66 2 12.32 2 13 C4.97 13.495 4.97 13.495 8 14 C7.67 15.65 7.34 17.3 7 19 C3.37 18.01 -0.26 17.02 -4 16 C-2.68 10.72 -1.36 5.44 0 0 Z " fill="#22341B" transform="translate(138,52)"/>
<path d="M0 0 C1.32 0 2.64 0 4 0 C4.33 0.66 4.66 1.32 5 2 C6.32 2 7.64 2 9 2 C9.33 1.34 9.66 0.68 10 0 C11.32 0 12.64 0 14 0 C14.6875 1.625 14.6875 1.625 15 4 C12.66666667 9.66666667 12.66666667 9.66666667 10 11 C8.45386986 10.91348369 6.91090613 10.75997364 5.375 10.5625 C4.55773437 10.46066406 3.74046875 10.35882813 2.8984375 10.25390625 C2.27195313 10.17011719 1.64546875 10.08632812 1 10 C0.63720544 8.71073008 0.28503302 7.41846728 -0.0625 6.125 C-0.35833984 5.04605469 -0.35833984 5.04605469 -0.66015625 3.9453125 C-1 2 -1 2 0 0 Z " fill="#F7C70A" transform="translate(126,101)"/>
<path d="M0 0 C0.66 0.33 1.32 0.66 2 1 C1.34 1.66 0.68 2.32 0 3 C0 3.99 0 4.98 0 6 C-1.82784602 6.96875839 -3.66260941 7.92446873 -5.5 8.875 C-7.03140625 9.67550781 -7.03140625 9.67550781 -8.59375 10.4921875 C-15.67895361 13.62852763 -21.86794249 14.28659079 -29.5 14.125 C-30.73363281 14.11146484 -30.73363281 14.11146484 -31.9921875 14.09765625 C-33.99492083 14.07436865 -35.99750154 14.03850959 -38 14 C-38 13.67 -38 13.34 -38 13 C-32.39 13 -26.78 13 -21 13 C-21 12.34 -21 11.68 -21 11 C-22.32 10.67 -23.64 10.34 -25 10 C-24.18917969 9.85304687 -23.37835938 9.70609375 -22.54296875 9.5546875 C-14.77028057 7.98024309 -5.83057864 5.83057864 0 0 Z " fill="#2E3D2F" transform="translate(155,164)"/>
<path d="M0 0 C0 0.33 0 0.66 0 1 C-0.89203125 1.20496094 -1.7840625 1.40992187 -2.703125 1.62109375 C-3.87359375 1.89050781 -5.0440625 2.15992187 -6.25 2.4375 C-7.41015625 2.70433594 -8.5703125 2.97117187 -9.765625 3.24609375 C-12.18349761 3.80968 -14.59443304 4.38669951 -17 5 C-12.76612903 0.28225806 -12.76612903 0.28225806 -9.625 -0.875 C-6.31429845 -1.03265245 -3.257081 -0.574779 0 0 Z " fill="#2F4253" transform="translate(155,111)"/>
<path d="M0 0 C3.63 0.66 7.26 1.32 11 2 C10.01 2.33 9.02 2.66 8 3 C8 3.66 8 4.32 8 5 C0.25 4.25 0.25 4.25 -2 2 C-1.34 2 -0.68 2 0 2 C0 1.34 0 0.68 0 0 Z " fill="#313E2E" transform="translate(108,172)"/>
<path d="M0 0 C1.32 0.33 2.64 0.66 4 1 C4 2.32 4 3.64 4 5 C2.68 5 1.36 5 0 5 C0 3.35 0 1.7 0 0 Z " fill="#889182" transform="translate(62,131)"/>
<path d="M0 0 C0.99 0.33 1.98 0.66 3 1 C2.67 2.32 2.34 3.64 2 5 C1.01 5 0.02 5 -1 5 C-0.67 3.35 -0.34 1.7 0 0 Z " fill="#889183" transform="translate(193,131)"/>
<path d="M0 0 C0.99 0.66 1.98 1.32 3 2 C0.36 2.66 -2.28 3.32 -5 4 C-3 1 -3 1 0 0 Z " fill="#2E4051" transform="translate(160,110)"/>
<path d="M0 0 C1.2065625 0.0309375 1.2065625 0.0309375 2.4375 0.0625 C1.7775 0.7225 1.1175 1.3825 0.4375 2.0625 C-1.6875 1.6875 -1.6875 1.6875 -3.5625 1.0625 C-2.5625 0.0625 -2.5625 0.0625 0 0 Z " fill="#2D404D" transform="translate(159.5625,106.9375)"/>
</svg>
